<svg width="360" height="640" viewBox="0 0 360 640" fill="none" xmlns="http://www.w3.org/2000/svg">
<g clip-path="url(#clip0)">
<rect width="360" height="640" fill="white"/>
<ellipse cx="70" cy="78.5" rx="308" ry="288.5" fill="#17CC4A"/>
<g filter="url(#filter0_d)">
<path d="M94.5625 94.0078L101.547 76.875H106.398L96.6953 98.2734V111H92.4062V98.2734L82.7031 76.875H87.5781L94.5625 94.0078ZM128.945 76.875V101.133C128.914 104.367 127.977 106.898 126.133 108.727C124.289 110.555 121.719 111.469 118.422 111.469C115.047 111.469 112.469 110.578 110.688 108.797C108.906 107 108 104.445 107.969 101.133V76.875H112.234V100.969C112.234 103.266 112.719 104.984 113.688 106.125C114.672 107.25 116.25 107.812 118.422 107.812C120.609 107.812 122.188 107.25 123.156 106.125C124.141 104.984 124.633 103.266 124.633 100.969V76.875H128.945ZM141.086 76.875L149.992 104.719L158.898 76.875H164.43V111H160.141V97.7109L160.539 84.3984L151.609 111H148.328L139.445 84.4922L139.844 97.7109V111H135.555V76.875H141.086ZM194.031 96.9375C194.031 101.594 193.039 105.18 191.055 107.695C189.07 110.211 186.25 111.469 182.594 111.469C179.078 111.469 176.297 110.25 174.25 107.812C172.219 105.359 171.164 101.898 171.086 97.4297V91.0078C171.086 86.4453 172.094 82.875 174.109 80.2969C176.125 77.7031 178.938 76.4062 182.547 76.4062C186.141 76.4062 188.938 77.6484 190.938 80.1328C192.953 82.6016 193.984 86.1328 194.031 90.7266V96.9375ZM189.742 90.9609C189.742 87.3516 189.148 84.6719 187.961 82.9219C186.789 81.1562 184.984 80.2734 182.547 80.2734C180.188 80.2734 178.398 81.1641 177.18 82.9453C175.977 84.7266 175.367 87.3516 175.352 90.8203V96.9375C175.352 100.422 175.953 103.078 177.156 104.906C178.375 106.734 180.188 107.648 182.594 107.648C185 107.648 186.781 106.805 187.938 105.117C189.094 103.43 189.695 100.844 189.742 97.3594V90.9609ZM222.953 111H218.641L204.977 84.7031V111H200.664V76.875H204.977L218.688 103.289V76.875H222.953V111ZM246.742 95.2266H234.672V107.32H248.734V111H230.383V76.875H248.5V80.5781H234.672V91.5469H246.742V95.2266Z" fill="white"/>
</g>
<g filter="url(#filter1_d)">
<rect x="265" y="38" width="53" height="81" fill="#322859"/>
</g>
<g filter="url(#filter2_i)">
<rect x="270" y="44" width="44" height="51" fill="#17CC4A"/>
</g>
<g filter="url(#filter3_i)">
<circle cx="292" cy="106" r="9" fill="#17CC4A"/>
</g>
<path d="M45.751 130.746C45.7217 131.01 45.6953 131.291 45.6719 131.59C45.6543 131.889 45.6455 132.188 45.6455 132.486C45.6455 132.99 45.71 133.436 45.8389 133.822C45.9736 134.203 46.1553 134.546 46.3838 134.851C46.6123 135.149 46.876 135.419 47.1748 135.659C47.4795 135.894 47.8018 136.113 48.1416 136.318C48.4814 136.113 48.8037 135.894 49.1084 135.659C49.4131 135.419 49.6797 135.149 49.9082 134.851C50.1426 134.546 50.3271 134.203 50.4619 133.822C50.6025 133.436 50.6729 132.99 50.6729 132.486C50.6729 132.188 50.6611 131.889 50.6377 131.59C50.6143 131.291 50.585 131.01 50.5498 130.746C51.0303 130.764 51.4873 130.796 51.9209 130.843C52.3604 130.884 52.7471 130.928 53.0811 130.975C53.4736 131.033 53.8369 131.092 54.1709 131.15V133.383C54.0889 133.359 53.9805 133.33 53.8457 133.295C53.7109 133.26 53.5703 133.225 53.4238 133.189C53.2773 133.154 53.1338 133.122 52.9932 133.093C52.8584 133.063 52.7471 133.043 52.6592 133.031C52.6533 133.605 52.5801 134.115 52.4395 134.561C52.2988 135.006 52.1055 135.404 51.8594 135.756C51.6191 136.107 51.3379 136.418 51.0156 136.688C50.6934 136.957 50.3506 137.203 49.9873 137.426L49.1963 137.883V142.049C49.9639 142.025 50.6523 141.976 51.2617 141.899C51.8711 141.823 52.3926 141.744 52.8262 141.662C53.3301 141.562 53.7783 141.457 54.1709 141.346V143.578C53.0752 143.766 52.0234 143.892 51.0156 143.956C50.0078 144.021 49.0615 144.053 48.1768 144.053C47.2744 144.053 46.3164 144.021 45.3027 143.956C44.2949 143.892 43.2373 143.766 42.1299 143.578V141.346C42.5225 141.457 42.9707 141.562 43.4746 141.662C43.9082 141.744 44.4297 141.823 45.0391 141.899C45.6484 141.976 46.3369 142.025 47.1045 142.049V137.883L46.3311 137.426C45.9619 137.203 45.6162 136.957 45.2939 136.688C44.9717 136.418 44.6904 136.107 44.4502 135.756C44.21 135.404 44.0195 135.006 43.8789 134.561C43.7383 134.115 43.665 133.605 43.6592 133.031C43.5713 133.043 43.457 133.063 43.3164 133.093C43.1816 133.122 43.0381 133.154 42.8857 133.189C42.7393 133.225 42.5957 133.26 42.4551 133.295C42.3203 133.33 42.2119 133.359 42.1299 133.383V131.15C42.4639 131.092 42.8271 131.033 43.2197 130.975C43.5537 130.928 43.9375 130.884 44.3711 130.843C44.8105 130.796 45.2705 130.764 45.751 130.746ZM62.8193 133.822C63.3115 133.822 63.8008 133.846 64.2871 133.893C64.7793 133.939 65.251 134.016 65.7021 134.121C66.1533 134.227 66.5752 134.358 66.9678 134.517C67.3604 134.675 67.7002 134.865 67.9873 135.088C68.2803 135.311 68.5088 135.568 68.6729 135.861C68.8369 136.148 68.9189 136.471 68.9189 136.828V141.381C68.9189 141.697 68.8369 141.987 68.6729 142.251C68.5088 142.515 68.2803 142.752 67.9873 142.963C67.7002 143.168 67.3604 143.347 66.9678 143.499C66.5752 143.651 66.1533 143.777 65.7021 143.877C65.251 143.977 64.7793 144.05 64.2871 144.097C63.7949 144.149 63.3057 144.176 62.8193 144.176C62.333 144.176 61.8438 144.149 61.3516 144.097C60.8652 144.05 60.3965 143.977 59.9453 143.877C59.4941 143.777 59.0723 143.651 58.6797 143.499C58.293 143.347 57.9531 143.168 57.6602 142.963C57.373 142.752 57.1475 142.518 56.9834 142.26C56.8193 141.996 56.7373 141.703 56.7373 141.381V136.828C56.7373 136.471 56.8193 136.148 56.9834 135.861C57.1475 135.568 57.373 135.311 57.6602 135.088C57.9531 134.865 58.293 134.675 58.6797 134.517C59.0723 134.358 59.4941 134.227 59.9453 134.121C60.3965 134.016 60.8652 133.939 61.3516 133.893C61.8438 133.846 62.333 133.822 62.8193 133.822ZM58.9697 140.818C58.9697 141.088 59.0811 141.322 59.3037 141.521C59.5322 141.715 59.8281 141.879 60.1914 142.014C60.5547 142.143 60.9648 142.239 61.4219 142.304C61.8848 142.368 62.3506 142.4 62.8193 142.4C63.3115 142.4 63.7861 142.365 64.2432 142.295C64.7061 142.225 65.1162 142.125 65.4736 141.996C65.8311 141.861 66.1152 141.697 66.3262 141.504C66.543 141.305 66.6514 141.076 66.6514 140.818V137.162C66.6514 136.91 66.543 136.685 66.3262 136.485C66.1152 136.28 65.8311 136.11 65.4736 135.976C65.1162 135.835 64.7061 135.729 64.2432 135.659C63.7861 135.583 63.3115 135.545 62.8193 135.545C62.3506 135.545 61.8848 135.58 61.4219 135.65C60.9648 135.715 60.5547 135.814 60.1914 135.949C59.8281 136.084 59.5322 136.254 59.3037 136.459C59.0811 136.658 58.9697 136.893 58.9697 137.162V140.818ZM74.21 140.414C74.21 140.672 74.3066 140.912 74.5 141.135C74.6992 141.357 74.9775 141.554 75.335 141.724C75.6982 141.888 76.1318 142.02 76.6357 142.119C77.1455 142.213 77.7139 142.26 78.3408 142.26C78.9795 142.26 79.5537 142.21 80.0635 142.11C80.5732 142.005 81.0039 141.867 81.3555 141.697C81.7129 141.527 81.9854 141.331 82.1729 141.108C82.3604 140.886 82.4541 140.654 82.4541 140.414V130.816C82.958 130.84 83.4326 130.875 83.8779 130.922C84.3232 130.963 84.7188 131.007 85.0645 131.054C85.4629 131.106 85.835 131.162 86.1807 131.221V133.471C86.04 133.424 85.8379 133.368 85.5742 133.304C85.3105 133.233 85.0205 133.172 84.7041 133.119V141.064C84.7041 141.527 84.5342 141.949 84.1943 142.33C83.8604 142.711 83.4033 143.039 82.8232 143.314C82.249 143.584 81.5752 143.795 80.8018 143.947C80.0283 144.1 79.208 144.176 78.3408 144.176C77.4678 144.176 76.6445 144.1 75.8711 143.947C75.0977 143.795 74.4209 143.584 73.8408 143.314C73.2607 143.039 72.8008 142.711 72.4609 142.33C72.127 141.949 71.96 141.527 71.96 141.064V133.119C71.6436 133.184 71.3506 133.248 71.0811 133.312C70.8174 133.371 70.6182 133.424 70.4834 133.471V131.221C70.8174 131.162 71.1865 131.106 71.5908 131.054C71.9307 131.007 72.3262 130.963 72.7773 130.922C73.2285 130.875 73.7061 130.84 74.21 130.816V140.414ZM96.4639 133.98C96.4639 134.59 96.4434 135.226 96.4023 135.888C96.3613 136.544 96.2822 137.221 96.165 137.918H94.0381C94.0908 137.719 94.1406 137.502 94.1875 137.268C94.2227 137.068 94.2549 136.837 94.2842 136.573C94.3193 136.304 94.3369 136.02 94.3369 135.721C93.8213 135.732 93.3936 135.782 93.0537 135.87C92.7197 135.952 92.4414 136.052 92.2188 136.169C91.9961 136.28 91.8145 136.395 91.6738 136.512C91.5332 136.629 91.4072 136.723 91.2959 136.793V144H89.0459V136.74C89.0225 136.553 88.9668 136.395 88.8789 136.266C88.7969 136.137 88.709 136.031 88.6152 135.949C88.5098 135.85 88.3896 135.768 88.2549 135.703L89.1865 133.98C89.4033 134.057 89.6172 134.159 89.8281 134.288C90.0098 134.399 90.2002 134.543 90.3994 134.719C90.6045 134.889 90.7861 135.1 90.9443 135.352C91.2432 135.146 91.5186 134.974 91.7705 134.833C92.0225 134.687 92.2656 134.563 92.5 134.464C92.7402 134.364 92.9863 134.288 93.2383 134.235C93.4961 134.177 93.7773 134.13 94.082 134.095C94.3926 134.06 94.7383 134.036 95.1191 134.024C95.5059 134.007 95.9541 133.992 96.4639 133.98ZM115.149 137.725L119.737 130.693C120.235 130.723 120.707 130.761 121.152 130.808C121.598 130.849 121.987 130.893 122.321 130.939C122.714 130.992 123.077 131.045 123.411 131.098V133.119L121.776 132.75V141.82L123.411 141.451V143.631C122.79 143.754 122.178 143.845 121.574 143.903C120.971 143.962 120.358 144.006 119.737 144.035V134.385L115.149 141.504L110.491 134.367V144.035C109.993 144.006 109.521 143.971 109.076 143.93C108.631 143.889 108.241 143.845 107.907 143.798C107.515 143.745 107.151 143.689 106.817 143.631V141.451L108.452 141.82V132.732L106.817 133.102V131.08C107.151 131.027 107.515 130.975 107.907 130.922C108.241 130.875 108.631 130.831 109.076 130.79C109.521 130.743 109.993 130.705 110.491 130.676L115.149 137.725ZM132.552 130.395C133.138 130.395 133.706 130.43 134.257 130.5C134.808 130.57 135.323 130.673 135.804 130.808C136.284 130.937 136.724 131.095 137.122 131.282C137.521 131.464 137.86 131.672 138.142 131.906C138.423 132.141 138.643 132.398 138.801 132.68C138.959 132.955 139.038 133.248 139.038 133.559V141.1C139.038 141.41 138.959 141.706 138.801 141.987C138.643 142.263 138.423 142.518 138.142 142.752C137.86 142.986 137.521 143.197 137.122 143.385C136.724 143.566 136.284 143.725 135.804 143.859C135.323 143.988 134.808 144.088 134.257 144.158C133.706 144.229 133.138 144.264 132.552 144.264C131.966 144.264 131.397 144.229 130.847 144.158C130.302 144.088 129.789 143.988 129.309 143.859C128.834 143.725 128.397 143.566 127.999 143.385C127.601 143.197 127.258 142.986 126.971 142.752C126.689 142.518 126.47 142.263 126.312 141.987C126.159 141.706 126.083 141.41 126.083 141.1V133.559C126.083 133.248 126.159 132.955 126.312 132.68C126.47 132.398 126.689 132.141 126.971 131.906C127.258 131.672 127.601 131.464 127.999 131.282C128.397 131.095 128.834 130.937 129.309 130.808C129.789 130.673 130.302 130.57 130.847 130.5C131.397 130.43 131.966 130.395 132.552 130.395ZM136.735 134.227C136.735 133.975 136.639 133.737 136.445 133.515C136.252 133.286 135.974 133.087 135.61 132.917C135.253 132.741 134.816 132.604 134.301 132.504C133.785 132.398 133.202 132.346 132.552 132.346C131.925 132.346 131.356 132.396 130.847 132.495C130.337 132.589 129.897 132.721 129.528 132.891C129.165 133.061 128.884 133.26 128.685 133.488C128.485 133.717 128.386 133.963 128.386 134.227V140.432C128.386 140.689 128.485 140.933 128.685 141.161C128.884 141.39 129.165 141.589 129.528 141.759C129.897 141.929 130.337 142.063 130.847 142.163C131.356 142.263 131.925 142.312 132.552 142.312C133.202 142.312 133.785 142.263 134.301 142.163C134.816 142.058 135.253 141.917 135.61 141.741C135.974 141.565 136.252 141.366 136.445 141.144C136.639 140.915 136.735 140.678 136.735 140.432V134.227ZM147.265 133.98C148.167 133.98 148.973 134.045 149.682 134.174C150.396 134.297 150.997 134.49 151.483 134.754C151.976 135.018 152.351 135.352 152.608 135.756C152.866 136.16 152.995 136.641 152.995 137.197V140.783C152.995 141.34 152.866 141.82 152.608 142.225C152.351 142.629 151.976 142.963 151.483 143.227C150.997 143.49 150.396 143.687 149.682 143.815C148.973 143.938 148.167 144 147.265 144C146.761 144 146.245 143.982 145.718 143.947C145.19 143.906 144.681 143.856 144.188 143.798C143.696 143.733 143.233 143.66 142.8 143.578C142.366 143.496 141.997 143.408 141.692 143.314V130.623H143.995V134.613C144.517 134.426 145.062 134.273 145.63 134.156C146.204 134.039 146.749 133.98 147.265 133.98ZM146.632 135.615C146.327 135.615 146.049 135.636 145.797 135.677C145.545 135.718 145.311 135.771 145.094 135.835C144.883 135.899 144.687 135.973 144.505 136.055C144.323 136.131 144.153 136.207 143.995 136.283V141.82C144.153 141.873 144.335 141.926 144.54 141.979C144.745 142.025 144.962 142.069 145.19 142.11C145.425 142.151 145.662 142.184 145.902 142.207C146.148 142.23 146.392 142.242 146.632 142.242C146.995 142.242 147.35 142.239 147.695 142.233C148.041 142.222 148.363 142.195 148.662 142.154C148.961 142.113 149.233 142.052 149.479 141.97C149.731 141.888 149.945 141.773 150.121 141.627C150.303 141.475 150.443 141.29 150.543 141.073C150.643 140.851 150.692 140.578 150.692 140.256V137.672C150.692 137.209 150.584 136.843 150.367 136.573C150.15 136.298 149.857 136.09 149.488 135.949C149.119 135.809 148.688 135.718 148.196 135.677C147.704 135.636 147.183 135.615 146.632 135.615ZM158.128 144H155.896V133.98H158.128V144ZM157.021 130.5C157.454 130.5 157.797 130.573 158.049 130.72C158.301 130.86 158.427 131.086 158.427 131.396V131.836C158.427 132.117 158.301 132.319 158.049 132.442C157.797 132.565 157.454 132.627 157.021 132.627C156.604 132.627 156.268 132.565 156.01 132.442C155.758 132.319 155.632 132.117 155.632 131.836V131.396C155.632 131.086 155.758 130.86 156.01 130.72C156.268 130.573 156.604 130.5 157.021 130.5ZM163.788 144H161.784V130.799H163.788V144ZM173.069 133.98C173.368 133.98 173.729 133.995 174.15 134.024C174.572 134.054 175.009 134.106 175.46 134.183C175.917 134.253 176.368 134.355 176.813 134.49C177.259 134.619 177.657 134.786 178.009 134.991C178.366 135.196 178.653 135.445 178.87 135.738C179.093 136.025 179.204 136.365 179.204 136.758V139.729H169.132V141.979C169.841 142.078 170.523 142.148 171.18 142.189C171.836 142.225 172.466 142.242 173.069 142.242C173.989 142.242 174.821 142.207 175.565 142.137C176.315 142.066 176.963 141.987 177.508 141.899C178.135 141.8 178.7 141.686 179.204 141.557V143.508C178.091 143.684 177.016 143.81 175.979 143.886C174.947 143.962 173.978 144 173.069 144C172.155 144 171.326 143.977 170.582 143.93C169.838 143.877 169.199 143.818 168.666 143.754C168.045 143.684 167.485 143.602 166.987 143.508V136.758C166.987 136.365 167.084 136.025 167.277 135.738C167.471 135.445 167.729 135.196 168.051 134.991C168.373 134.786 168.742 134.619 169.158 134.49C169.58 134.355 170.017 134.253 170.468 134.183C170.919 134.106 171.367 134.054 171.812 134.024C172.264 133.995 172.683 133.98 173.069 133.98ZM169.132 138.322H177.024V137.303C177.024 137.062 176.966 136.857 176.849 136.688C176.731 136.512 176.573 136.365 176.374 136.248C176.181 136.131 175.952 136.037 175.688 135.967C175.431 135.891 175.161 135.835 174.88 135.8C174.599 135.759 174.314 135.732 174.027 135.721C173.746 135.709 173.479 135.703 173.228 135.703C172.964 135.703 172.68 135.709 172.375 135.721C172.076 135.732 171.774 135.759 171.47 135.8C171.165 135.841 170.872 135.899 170.591 135.976C170.31 136.046 170.061 136.143 169.844 136.266C169.627 136.383 169.454 136.529 169.325 136.705C169.196 136.875 169.132 137.08 169.132 137.32V138.322ZM189.856 134.508C190.021 134.461 190.261 134.402 190.577 134.332C190.899 134.262 191.28 134.197 191.72 134.139C192.159 134.074 192.648 134.021 193.188 133.98C193.732 133.934 194.315 133.91 194.937 133.91C196.038 133.91 197.008 133.992 197.846 134.156C198.689 134.32 199.396 134.599 199.964 134.991C200.532 135.384 200.96 135.905 201.247 136.556C201.54 137.206 201.687 138.018 201.687 138.99C201.687 139.945 201.528 140.745 201.212 141.39C200.896 142.028 200.462 142.541 199.911 142.928C199.36 143.314 198.716 143.59 197.978 143.754C197.239 143.918 196.448 144 195.604 144C194.913 144 194.271 143.959 193.68 143.877C193.088 143.795 192.563 143.66 192.106 143.473V147.34H189.856V134.508ZM195.042 135.791C194.661 135.791 194.321 135.803 194.022 135.826C193.729 135.85 193.463 135.882 193.223 135.923C192.988 135.958 192.78 136.002 192.599 136.055C192.417 136.102 192.253 136.154 192.106 136.213V141.838C192.358 141.908 192.593 141.967 192.81 142.014C193.032 142.055 193.27 142.087 193.521 142.11C193.779 142.134 194.072 142.151 194.4 142.163C194.734 142.169 195.136 142.172 195.604 142.172C196.296 142.172 196.885 142.093 197.371 141.935C197.863 141.771 198.265 141.548 198.575 141.267C198.892 140.985 199.123 140.651 199.27 140.265C199.416 139.872 199.489 139.447 199.489 138.99C199.489 138.369 199.39 137.854 199.19 137.443C198.991 137.033 198.701 136.705 198.32 136.459C197.939 136.213 197.474 136.04 196.923 135.94C196.372 135.841 195.745 135.791 195.042 135.791ZM209.948 133.98C210.851 133.98 211.624 134.057 212.269 134.209C212.913 134.355 213.44 134.578 213.851 134.877C214.267 135.17 214.568 135.536 214.756 135.976C214.949 136.415 215.046 136.928 215.046 137.514V144H212.743V138.059C212.743 137.73 212.699 137.449 212.611 137.215C212.523 136.975 212.403 136.772 212.251 136.608C212.104 136.438 211.932 136.301 211.732 136.195C211.533 136.09 211.325 136.011 211.108 135.958C210.897 135.899 210.681 135.861 210.458 135.844C210.235 135.82 210.024 135.809 209.825 135.809C209.45 135.809 209.093 135.835 208.753 135.888C208.413 135.94 208.091 136.014 207.786 136.107C207.481 136.195 207.194 136.301 206.925 136.424C206.655 136.547 206.403 136.676 206.169 136.811V144H203.866V130.623H206.169V135.141C206.438 134.977 206.714 134.824 206.995 134.684C207.276 134.543 207.569 134.42 207.874 134.314C208.185 134.209 208.51 134.127 208.85 134.068C209.195 134.01 209.562 133.98 209.948 133.98ZM223.659 133.822C224.151 133.822 224.641 133.846 225.127 133.893C225.619 133.939 226.091 134.016 226.542 134.121C226.993 134.227 227.415 134.358 227.808 134.517C228.2 134.675 228.54 134.865 228.827 135.088C229.12 135.311 229.349 135.568 229.513 135.861C229.677 136.148 229.759 136.471 229.759 136.828V141.381C229.759 141.697 229.677 141.987 229.513 142.251C229.349 142.515 229.12 142.752 228.827 142.963C228.54 143.168 228.2 143.347 227.808 143.499C227.415 143.651 226.993 143.777 226.542 143.877C226.091 143.977 225.619 144.05 225.127 144.097C224.635 144.149 224.146 144.176 223.659 144.176C223.173 144.176 222.684 144.149 222.191 144.097C221.705 144.05 221.236 143.977 220.785 143.877C220.334 143.777 219.912 143.651 219.52 143.499C219.133 143.347 218.793 143.168 218.5 142.963C218.213 142.752 217.987 142.518 217.823 142.26C217.659 141.996 217.577 141.703 217.577 141.381V136.828C217.577 136.471 217.659 136.148 217.823 135.861C217.987 135.568 218.213 135.311 218.5 135.088C218.793 134.865 219.133 134.675 219.52 134.517C219.912 134.358 220.334 134.227 220.785 134.121C221.236 134.016 221.705 133.939 222.191 133.893C222.684 133.846 223.173 133.822 223.659 133.822ZM219.81 140.818C219.81 141.088 219.921 141.322 220.144 141.521C220.372 141.715 220.668 141.879 221.031 142.014C221.395 142.143 221.805 142.239 222.262 142.304C222.725 142.368 223.19 142.4 223.659 142.4C224.151 142.4 224.626 142.365 225.083 142.295C225.546 142.225 225.956 142.125 226.313 141.996C226.671 141.861 226.955 141.697 227.166 141.504C227.383 141.305 227.491 141.076 227.491 140.818V137.162C227.491 136.91 227.383 136.685 227.166 136.485C226.955 136.28 226.671 136.11 226.313 135.976C225.956 135.835 225.546 135.729 225.083 135.659C224.626 135.583 224.151 135.545 223.659 135.545C223.19 135.545 222.725 135.58 222.262 135.65C221.805 135.715 221.395 135.814 221.031 135.949C220.668 136.084 220.372 136.254 220.144 136.459C219.921 136.658 219.81 136.893 219.81 137.162V140.818ZM241.431 140.537V130.746C241.935 130.764 242.406 130.796 242.846 130.843C243.291 130.884 243.684 130.928 244.023 130.975C244.416 131.033 244.782 131.092 245.122 131.15V133.383C244.653 133.242 244.114 133.119 243.505 133.014V141.873C243.821 141.826 244.111 141.771 244.375 141.706C244.645 141.642 244.894 141.574 245.122 141.504V143.578C244.7 143.648 244.316 143.707 243.971 143.754C243.625 143.801 243.303 143.839 243.004 143.868C242.711 143.897 242.436 143.921 242.178 143.938C241.92 143.956 241.671 143.971 241.431 143.982L235.542 134.209V143.982C235.302 143.971 235.053 143.956 234.795 143.938C234.537 143.921 234.262 143.897 233.969 143.868C233.676 143.839 233.356 143.801 233.011 143.754C232.665 143.707 232.284 143.648 231.868 143.578V141.346C232.302 141.486 232.841 141.609 233.485 141.715V132.838C233.175 132.891 232.885 132.949 232.615 133.014C232.346 133.078 232.097 133.143 231.868 133.207V131.15C232.196 131.092 232.557 131.033 232.949 130.975C233.283 130.928 233.673 130.884 234.118 130.843C234.563 130.796 235.038 130.764 235.542 130.746L241.431 140.537ZM254.122 130.623C255.024 130.623 255.979 130.655 256.987 130.72C258.001 130.784 259.056 130.91 260.151 131.098V133.33C259.659 133.189 259.161 133.075 258.657 132.987C258.153 132.894 257.646 132.82 257.137 132.768C256.633 132.715 256.129 132.677 255.625 132.653C255.121 132.63 254.62 132.615 254.122 132.609C253.882 132.609 253.615 132.615 253.322 132.627C253.035 132.633 252.728 132.645 252.399 132.662C252.077 132.68 251.737 132.706 251.38 132.741C251.022 132.776 250.659 132.82 250.29 132.873V136.072H257.972V138.234H250.29V141.768C250.858 141.85 251.45 141.911 252.065 141.952C252.681 141.993 253.366 142.014 254.122 142.014C255.142 142.014 256.155 141.964 257.163 141.864C258.171 141.765 259.167 141.574 260.151 141.293V143.525C259.056 143.713 258.004 143.839 256.996 143.903C255.988 143.968 255.042 144 254.157 144C253.255 144 252.297 143.968 251.283 143.903C250.275 143.839 249.218 143.713 248.11 143.525V131.098C249.218 130.91 250.275 130.784 251.283 130.72C252.291 130.655 253.237 130.623 254.122 130.623Z" fill="#322859"/>
</g>
<defs>
<filter id="filter0_d" x="78.7031" y="76.4062" width="174.031" height="43.0625" filterUnits="userSpaceOnUse" color-interpolation-filters="sRGB">
<feFlood flood-opacity="0" result="BackgroundImageFix"/>
<feColorMatrix in="SourceAlpha" type="matrix" values="0 0 0 0 0 0 0 0 0 0 0 0 0 0 0 0 0 0 127 0"/>
<feOffset dy="4"/>
<feGaussianBlur stdDeviation="2"/>
<feColorMatrix type="matrix" values="0 0 0 0 0 0 0 0 0 0 0 0 0 0 0 0 0 0 0.25 0"/>
<feBlend mode="normal" in2="BackgroundImageFix" result="effect1_dropShadow"/>
<feBlend mode="normal" in="SourceGraphic" in2="effect1_dropShadow" result="shape"/>
</filter>
<filter id="filter1_d" x="261" y="38" width="61" height="89" filterUnits="userSpaceOnUse" color-interpolation-filters="sRGB">
<feFlood flood-opacity="0" result="BackgroundImageFix"/>
<feColorMatrix in="SourceAlpha" type="matrix" values="0 0 0 0 0 0 0 0 0 0 0 0 0 0 0 0 0 0 127 0"/>
<feOffset dy="4"/>
<feGaussianBlur stdDeviation="2"/>
<feColorMatrix type="matrix" values="0 0 0 0 0 0 0 0 0 0 0 0 0 0 0 0 0 0 0.25 0"/>
<feBlend mode="normal" in2="BackgroundImageFix" result="effect1_dropShadow"/>
<feBlend mode="normal" in="SourceGraphic" in2="effect1_dropShadow" result="shape"/>
</filter>
<filter id="filter2_i" x="270" y="44" width="44" height="55" filterUnits="userSpaceOnUse" color-interpolation-filters="sRGB">
<feFlood flood-opacity="0" result="BackgroundImageFix"/>
<feBlend mode="normal" in="SourceGraphic" in2="BackgroundImageFix" result="shape"/>
<feColorMatrix in="SourceAlpha" type="matrix" values="0 0 0 0 0 0 0 0 0 0 0 0 0 0 0 0 0 0 127 0" result="hardAlpha"/>
<feOffset dy="4"/>
<feGaussianBlur stdDeviation="2"/>
<feComposite in2="hardAlpha" operator="arithmetic" k2="-1" k3="1"/>
<feColorMatrix type="matrix" values="0 0 0 0 0 0 0 0 0 0 0 0 0 0 0 0 0 0 0.25 0"/>
<feBlend mode="normal" in2="shape" result="effect1_innerShadow"/>
</filter>
<filter id="filter3_i" x="283" y="97" width="18" height="22" filterUnits="userSpaceOnUse" color-interpolation-filters="sRGB">
<feFlood flood-opacity="0" result="BackgroundImageFix"/>
<feBlend mode="normal" in="SourceGraphic" in2="BackgroundImageFix" result="shape"/>
<feColorMatrix in="SourceAlpha" type="matrix" values="0 0 0 0 0 0 0 0 0 0 0 0 0 0 0 0 0 0 127 0" result="hardAlpha"/>
<feOffset dy="4"/>
<feGaussianBlur stdDeviation="2"/>
<feComposite in2="hardAlpha" operator="arithmetic" k2="-1" k3="1"/>
<feColorMatrix type="matrix" values="0 0 0 0 0 0 0 0 0 0 0 0 0 0 0 0 0 0 0.25 0"/>
<feBlend mode="normal" in2="shape" result="effect1_innerShadow"/>
</filter>
<clipPath id="clip0">
<rect width="360" height="640" fill="white"/>
</clipPath>
</defs>
</svg>
